<?xml version="1.0" encoding="UTF-8" standalone="no"?>
<svg
   class="seperator"
   preserveAspectRatio="none"
   viewBox="0 0 1440 320"
   version="1.1"
   id="svg4"
   sodipodi:docname="divider-waves.svg"
   inkscape:version="1.2.2 (b0a84865, 2022-12-01)"
   xmlns:inkscape="http://www.inkscape.org/namespaces/inkscape"
   xmlns:sodipodi="http://sodipodi.sourceforge.net/DTD/sodipodi-0.dtd"
   xmlns="http://www.w3.org/2000/svg"
   xmlns:svg="http://www.w3.org/2000/svg">
  <defs
     id="defs8" />
  <sodipodi:namedview
     id="namedview6"
     pagecolor="#ffffff"
     bordercolor="#000000"
     borderopacity="0.25"
     inkscape:showpageshadow="2"
     inkscape:pageopacity="0.0"
     inkscape:pagecheckerboard="0"
     inkscape:deskcolor="#d1d1d1"
     showgrid="false"
     inkscape:zoom="0.7375"
     inkscape:cx="555.9322"
     inkscape:cy="160"
     inkscape:window-width="1512"
     inkscape:window-height="916"
     inkscape:window-x="0"
     inkscape:window-y="38"
     inkscape:window-maximized="1"
     inkscape:current-layer="svg4" />
  <path
     d="m 0,29.893794 h 16 c 16,0 48,0 80,-2.47558 32,-2.662416 64,-7.333321 96,4.951159 32,12.471317 64,42.365111 96,49.838559 32,7.473449 64,-7.473448 96,-7.473448 32,0 64,14.946897 96,19.944765 32,4.811033 64,0.140127 96,-4.997868 32,-5.137996 64,-9.808901 96,-14.946897 32,-5.137996 64,-9.808901 96,-19.944765 32,-9.949029 64,-24.895925 96,-12.424608 32,12.28448 64,52.454265 96,54.789718 32,2.335453 64,-32.229246 96,-49.838559 32,-17.422476 64,-17.422476 96,0 32,17.609313 64,52.174012 96,62.30988 32,9.94902 64,-4.99787 96,-14.946901 32,-10.135864 64,-14.806769 80,-17.469185 l 16,-2.47558 V 0 h -16 c -16,0 -48,0 -80,0 -32,0 -64,0 -96,0 -32,0 -64,0 -96,0 -32,0 -64,0 -96,0 -32,0 -64,0 -96,0 C 928,0 896,0 864,0 832,0 800,0 768,0 736,0 704,0 672,0 640,0 608,0 576,0 544,0 512,0 480,0 448,0 416,0 384,0 352,0 320,0 288,0 256,0 224,0 192,0 160,0 128,0 96,0 64,0 32,0 16,0 H 0 Z"
     id="path2"
     style="stroke-width:0.68344" />
</svg>
